PathFileType	4	(X/Y/Z)	Walk7.trc
DataRate	CameraRate	NumFrames	NumMarkers	Units	OrigDataRate	OrigDataStartFrame	OrigNumFrames
200.000000	200.000000	10	55	mm	200.000000	441	591
Frame#	Times		RFA1		RASI		RUA1		RACR1		RBHD		C7		LFA1		RTH2		RCAR		RTH3		RBack		RElbow		RTB3		RTB1		LElbowM		RMT1		RMT5		RLFC		LTH2		RTB2		RTH4		LTH3		LACR1		RTB4		LElbow		LPSI		RMMAL		LWRU		CLAV		LTH4		RWRR		RPSI		LBHD		LTB1		T10		LLFC		RToe		LFHD		RWRU		LTB3		RTH1		LTB2		LTB4		LMT1		LTH1		LCAL		LMT5		LWRR		LLMAL		RElbowM		RLMAL		LToe		RCAL		LUA1		LCAR
			X1	Y1	Z1	X2	Y2	Z2	X3	Y3	Z3	X4	Y4	Z4	X5	Y5	Z5	X6	Y6	Z6	X7	Y7	Z7	X8	Y8	Z8	X9	Y9	Z9	X10	Y10	Z10	X11	Y11	Z11	X12	Y12	Z12	X13	Y13	Z13	X14	Y14	Z14	X15	Y15	Z15	X16	Y16	Z16	X17	Y17	Z17	X18	Y18	Z18	X19	Y19	Z19	X20	Y20	Z20	X21	Y21	Z21	X22	Y22	Z22	X23	Y23	Z23	X24	Y24	Z24	X25	Y25	Z25	X26	Y26	Z26	X27	Y27	Z27	X28	Y28	Z28	X29	Y29	Z29	X30	Y30	Z30	X31	Y31	Z31	X32	Y32	Z32	X33	Y33	Z33	X34	Y34	Z34	X35	Y35	Z35	X36	Y36	Z36	X37	Y37	Z37	X38	Y38	Z38	X39	Y39	Z39	X40	Y40	Z40	X41	Y41	Z41	X42	Y42	Z42	X43	Y43	Z43	X44	Y44	Z44	X45	Y45	Z45	X46	Y46	Z46	X47	Y47	Z47	X48	Y48	Z48	X49	Y49	Z49	X50	Y50	Z50	X51	Y51	Z51	X52	Y52	Z52	X53	Y53	Z53	X54	Y54	Z54	X55	Y55	Z55

441	2.205	455.79	969.69	542.05	477.75	950.35	391.46	428.16	1231.6	491.43	471.59	1415.7	398.52	458.1	1605	311.1	406.57	1458.9	251.36	381.29	984.69	-58.886	542.01	676.11	412.57	528.7	801.77	532.75	503.69	562.09	417.32	332.93	1369.9	351.09	388.26	1106.8	529.6	368.78	239.72	315.54	504.48	370.48	323.66	302.64	1127.9	61.562	337.15	74.912	273.44	311.49	83.858	353.07	516.5	467.52	407.33	548.67	674.96	92.818	422.99	313.65	392.15	473.75	651.13	426.74	489.45	576.83	73.299	434.75	1439	76.311	438.9	305.38	321.67	317.46	1126.5	-15.986	320.1	980.69	171.28	287.84	195.93	264.61	349.7	868.15	-53.627	537.68	1372.5	236.56	480.56	664.75	55.994	536.97	860.6	491.49	307.57	975.89	275.34	447.24	1594.6	173.15	523.92	368.51	155.58	304.6	1148.5	235.2	488.38	458.84	92.21	379.32	62.127	303.33	632.85	1597.3	182.76	472.76	842.46	533.17	485.27	187.78	176.27	444.96	742.56	429.17	476.66	276.26	99.104	501.45	278.62	166.74	567.54	35.687	226.44	472.79	762.16	46.733	355.39	30.812	201.36	538.02	31.279	138.2	427.45	873.22	-26.644	405.5	71.452	154.5	358.51	1076.7	438.54	251.39	203.46	349.13	613.68	31.807	209.41	185.58	192.83	301.15	369.25	1248.1	-9.6627	415.86	820.81	-74.383
442	2.21	457.63	969.25	541.49	483.98	951.03	391.13	432.9	1231.7	491.13	477.1	1416	399.34	464.14	1605.1	312.24	412.66	1459.2	251.54	390.77	985.76	-59.215	549.97	677.82	413.51	528.14	800.05	533.48	513.57	563.7	418.5	338.75	1370.2	350.9	391.4	1107.1	529.03	383.88	238.75	315.52	517.44	372.09	324.19	309.9	1128.4	61.096	356.24	74.018	273.53	330.52	81.925	353.52	527.65	468.83	407.85	552.33	674.22	92.542	436.85	313.57	392.53	482.46	652.78	427.51	492.15	576.83	72.592	441.18	1439.7	76.715	453.2	305.76	321.91	324.85	1127.3	-16.875	326.5	980.93	171.7	304.34	192.85	265.42	360.44	869.15	-53.636	543.76	1373.1	237.1	483.97	664.92	55.735	537.43	858.94	492.04	313.76	976.44	275.88	453.05	1595.4	174.19	524.57	368.4	154.85	311.01	1148.8	235.01	489.28	458.85	91.428	398.86	61.611	303.84	638.56	1597.9	183.52	472.98	841.82	533.55	485.53	187.56	175.79	452.5	743.37	429.57	476.98	275.98	98.497	501.83	278.37	166	567.52	35.722	226.33	477.24	762.42	46.722	356.54	30.639	201.74	537.95	31.238	138.05	437.88	875.16	-26.516	405.13	71.457	154.38	362.05	1077.7	437.63	267.52	199.42	349.35	613.64	31.813	209.36	201.95	187.44	301.13	376.29	1249.1	-9.9764	427.45	822.78	-74.487
443	2.215	458.88	969.42	542.08	490.95	951.55	390.77	437.93	1231.6	490.83	482.8	1416.2	399.87	470.35	1605.4	313.22	418.61	1459.7	251.92	399.95	987.01	-59.571	559.39	680.03	413.88	527.63	798.7	534.23	523.15	565.58	419.48	344.58	1370.6	350.71	394.95	1107.6	528.23	398.81	237.68	316.08	530.55	373.86	324.6	317.45	1129.1	60.433	376.08	72.344	274.33	349.57	79.922	354.05	538.67	470.21	408.68	556.07	673.46	92.355	450.67	313.29	392.75	491.47	654.04	428.43	494.43	576.73	72.234	447.99	1440.5	77.221	467.69	306.15	322.09	332.34	1127.9	-17.591	332.32	981.45	172.02	320.67	190.09	265.53	371.25	869.94	-53.986	549.99	1373.7	237.57	487.54	665.09	55.606	537.56	857	492.65	319.65	976.61	275.92	459.22	1595.9	175.65	525.78	368.42	153.89	317.16	1149.1	235.04	489.96	458.77	90.771	418.93	61.118	304.57	644.41	1598.5	184.24	472.94	841.15	533.76	486.02	187.7	175.3	460.35	744.14	430.22	477.41	275.85	97.986	502.36	278.22	165.36	567.52	35.75	226.28	482.13	762.68	46.732	357.01	31.088	201.23	537.92	31.213	137.93	448.38	877.11	-26.448	405.72	71.437	154.52	365.51	1078.3	436.84	283.57	195.79	349.18	613.64	31.816	209.28	218.44	181.74	301.08	383.27	1250	-10.152	438.76	824.64	-74.461
444	2.22	460.7	968.81	541.42	498.01	952.12	390.35	442.6	1231.4	490.67	488.7	1416.3	400.45	476.45	1605.5	314.2	424.9	1459.9	252.38	409.21	988.26	-59.862	567.97	682.27	414.19	526.72	797.23	535.04	532.87	567.08	420.31	350.33	1370.7	350.58	398.4	1107.9	527.64	414.59	236.2	316.19	543.72	375.51	324.96	324.64	1129.4	59.832	396.21	71.23	275.05	368.73	77.878	354.67	549.7	472.11	409.45	559.58	672.74	92.179	464.36	312.86	393.35	500.07	655.44	429.15	496.87	576.76	71.771	454.24	1441.2	77.563	482.31	306.47	322.27	339.89	1128.4	-18.236	337.96	981.65	172.12	337.36	186.99	265.27	382.02	870.96	-54.47	556.11	1374	237.99	491.38	665.14	55.206	538.18	855.41	493.12	325.49	977.01	276.2	465.22	1596.5	176.85	527.07	368.39	152.97	323.39	1149.5	234.91	490.74	458.58	90.206	438.64	60.781	305.84	650.55	1599.1	185.07	472.67	840.34	533.9	486.5	187.76	174.86	468.45	744.24	430.77	477.72	275.77	97.632	502.95	278.15	164.93	567.54	35.79	226.2	487.44	762.74	46.471	356.95	30.008	202.36	537.91	31.157	137.81	459	879.05	-26.319	405.73	71.508	154.33	369.11	1078.9	436.2	299.97	191.41	349.19	613.66	31.78	209.19	235.22	175.97	301.08	390.31	1250.9	-10.356	450.21	826.19	-74.502
445	2.225	462.52	968.14	541.09	504.16	952.3	390.09	447.06	1231.3	490.63	494.54	1416.3	400.77	482.36	1605.4	315.36	430.82	1460.1	252.73	418.88	989.33	-60.132	575.55	684.12	414.52	525.8	795.71	535.94	542.78	568.65	420.91	356.15	1370.7	350.34	401.69	1107.8	527.02	430.31	234.73	316.29	556.73	377.14	325.43	331.92	1129.5	59.177	416.24	69.194	275.87	388.2	75.762	355.43	560.63	473.63	410.29	563.14	671.79	92.134	478.12	312.34	393.9	508.91	656.53	429.82	499.03	576.7	71.455	460.87	1441.9	77.993	497.42	306.65	321.79	347.11	1128.9	-19.004	344.28	981.92	172.69	354.27	183.68	265.48	392.83	871.79	-54.779	562.05	1374.1	238.46	494.65	665.12	55.097	538.53	853.6	493.97	331.34	976.92	276.43	470.92	1597	177.56	527.83	368.22	152.44	329.67	1149.4	235	491.97	458.41	89.664	458.46	60.708	307.59	656.45	1599.6	185.86	472.43	839.55	534.1	486.89	187.69	174.45	475.97	745.21	431.04	477.97	275.72	97.308	503.47	278	164.57	567.55	35.781	226.17	492.03	762.84	46.757	356.56	30.475	202.06	537.92	31.102	137.73	469.64	880.92	-26.242	405.69	71.605	154.16	373.02	1079.4	435.4	316.6	187.42	349.29	613.68	31.715	209.21	252.39	169.83	301.17	397.56	1251.5	-10.661	461.69	827.78	-74.438
446	2.23	463.78	967.75	541.6	509.76	952.21	390.06	451.39	1231	490.63	500.14	1416.2	401.17	488.37	1605.3	316.42	436.83	1460.1	252.91	428.1	990.31	-60.469	583.63	685.99	414.83	525.13	794.26	536.72	552.48	570.13	421.62	361.9	1370.8	350.37	405.09	1107.8	526.42	445.99	233.17	316.72	569.45	378.6	325.95	339.17	1129.9	58.252	436.34	67.353	276.71	407.79	73.681	356.18	571.3	475.37	411.12	566.52	670.72	92.114	491.81	311.9	394.54	517.28	657.6	430.25	501.37	576.45	71.262	467.45	1442.4	78.376	512.55	307.28	321.56	354.66	1129.2	-19.843	350.33	981.83	173.13	371.23	180.26	265.88	403.86	872.65	-54.924	568.14	1374.4	238.97	498.68	664.82	54.695	539.08	852.05	494.45	337.62	977.26	276.88	476.68	1597.4	178.24	528.54	367.86	152.09	335.89	1149.5	234.94	492.89	458.3	89.438	478.72	60.554	308.82	662.32	1599.9	186.66	472.58	838.88	534.29	487.34	187.65	174.1	482.31	746.31	431.77	478.23	275.63	96.974	503.98	277.72	164.39	567.53	35.787	226.15	496.11	762.8	47.07	356.25	30.93	201.66	537.92	31.051	137.67	480.22	882.77	-26.208	405.67	71.69	154.07	376.76	1080.1	434.54	333.38	183.1	349.72	613.72	31.672	209.21	269.58	163.73	301.14	404.45	1252.1	-10.966	473.29	829.66	-74.309
447	2.235	465.03	967.46	542.39	515.72	952.17	389.98	455.9	1230.9	490.74	505.54	1416	401.64	494.48	1605.2	317.56	442.98	1460.2	253.01	437.36	991.57	-60.785	591.72	687.79	415.15	524.74	792.75	537.22	561.96	571.51	422.36	367.94	1370.7	350.22	408.35	1107.9	525.93	461.62	231.71	317.33	581.65	379.97	326.65	346.37	1129.9	57.531	456.31	65.599	277.81	427.74	71.702	356.96	582	476.83	412.39	570.14	669.76	92.203	505.48	311.65	395.2	526.01	658.64	430.96	504.02	576.44	70.883	474.07	1442.8	78.615	526.77	307.48	322.62	362.2	1129.4	-20.45	356.12	981.76	173.36	388.22	176.86	266.56	414.72	873.36	-55.015	574.33	1374.7	239.51	502.25	664.59	54.546	539.44	850.05	495.26	343.95	977.4	277.22	482.82	1597.7	179.84	528.57	367.58	151.97	342.11	1149.6	234.97	493.93	458.19	89.175	499.6	60.317	309.91	668.04	1600.2	187.6	472.69	838.2	534.42	487.3	187.51	173.96	489.42	747.61	432.74	478.63	275.51	96.754	504.76	277.47	164.08	567.54	35.776	226.14	500.49	762.79	47.37	356.18	31.198	201.5	537.95	31.009	137.59	490.95	884.84	-26.393	405.71	71.73	154.09	380.34	1080.6	433.93	350.39	178.7	349.9	613.78	31.605	209.15	287.08	157.51	301.36	411.33	1252.8	-11.195	484.94	831.56	-74.329
448	2.24	466.55	967.05	542.6	522.26	951.95	389.85	460.28	1230.7	490.8	511.4	1415.5	402.05	500.61	1604.8	318.58	449.11	1459.9	253.63	446.82	992.39	-61.211	599.25	689.5	415.39	524.21	791.12	537.83	570.9	572.74	423.1	373.78	1370.5	350.28	411.64	1108	525.18	477.45	230.18	317.94	593.16	381.1	327.83	353.22	1130.1	56.556	476.56	64.052	278.94	447.69	69.741	357.84	592.25	478.4	413.22	573.5	668.87	92.57	518.95	311.29	395.83	534.3	659.35	431.82	506.43	576.18	70.747	480.7	1443	79.187	539.76	307.42	324.18	369.74	1129.5	-21.238	361.25	981.88	173.42	405.34	173.37	267.11	425.52	874.19	-55.307	580.4	1374.6	239.94	505.57	664.36	54.629	539.82	848.39	495.93	350.03	977.39	277.83	488.59	1597.6	181.25	529.03	367.16	152	348.46	1149.5	234.99	495.2	458.06	88.857	519.91	59.951	311.13	674.16	1600.4	188.3	472.44	837.24	534.52	487.67	187.32	173.95	496.92	748.44	433.89	479.26	275.4	96.58	505.1	277.29	163.91	567.62	35.75	226.12	505.43	762.76	47.348	356.25	31.208	201.58	537.95	30.959	137.48	501.51	886.68	-26.585	405.75	71.747	154.09	384.06	1080.9	433.42	367.35	174.24	350.21	613.85	31.475	209.12	305.12	150.23	301.76	418.51	1253.1	-11.432	496.5	833.25	-74.344
449	2.245	468.41	966.39	542.26	528.84	951.73	389.74	464.87	1230.2	490.75	517.25	1415.2	402.76	506.62	1604.3	319.7	455.25	1459.7	254.16	456.22	993.28	-61.452	607.57	690.88	415.83	523.54	789.75	538.52	579.96	574.15	424.02	379.67	1370.3	350.17	414.97	1107.9	524.6	493.09	228.39	318.83	604.76	382.33	328.94	360.18	1130.3	55.385	497.97	63.394	279.93	467.78	67.702	358.9	602.03	479.74	413.98	577.16	667.86	92.814	532.5	310.79	396.39	542.78	660.28	432.62	508.94	575.93	70.646	487.19	1443.3	79.631	553.14	306.54	325.71	377.21	1129.9	-21.988	367.2	981.76	173.82	422.88	169.85	267.63	436.54	874.89	-55.6	586.36	1374.4	240.48	508.93	664.14	54.567	540.09	846.58	496.64	356.4	977.2	278.25	494.58	1597.5	182.15	529.61	366.8	152.02	354.35	1149.3	235.1	496.58	457.79	88.727	540.61	59.79	312.47	679.95	1600.6	189.17	472.19	836.31	534.54	488.07	187.18	173.92	504.74	749.11	434.73	480.06	275.3	96.581	505.28	277.08	163.96	567.65	35.748	226.15	510.31	762.59	47.656	356.35	31.149	201.8	537.78	30.797	137.43	512.14	888.25	-26.495	405.8	71.808	154.13	388.21	1081.1	432.85	384.63	169.82	350.89	613.99	31.353	209.14	323.24	144.24	302.34	425.74	1253.5	-11.627	507.97	834.73	-74.308
450	2.25	469.89	965.67	542.27	535.42	951.34	389.61	469.42	1229.7	490.66	523.12	1414.8	403.38	512.5	1603.8	320.67	461.2	1459.6	254.28	465.71	994.09	-61.727	615.48	691.95	416.13	522.72	788.24	539.35	589.12	575.3	425.01	385.44	1370	349.91	418.34	1107.7	524.13	508.88	226.69	319.82	616.5	383.43	329.96	367.34	1130.5	54.799	518.76	62.102	281.52	488.09	65.612	360.08	611.78	480.89	414.13	580.71	666.9	93.077	545.94	310.21	397.35	550.64	661.08	433.7	511.63	575.63	70.533	493.64	1443.4	79.988	566.27	305.9	326.73	384.92	1130	-22.968	373.87	981.65	174.22	440.65	166.15	268.42	447.81	875.14	-55.607	592.5	1374.3	241.04	512.52	664.13	54.895	540.4	845.19	497.75	362.69	977.09	278.48	500.57	1597.5	183.1	530.25	366.47	152.06	360.58	1149	234.87	498.12	457.46	88.816	561.13	59.697	314	685.82	1600.7	190.03	472.37	835.55	534.84	488.12	187.09	174.18	512.73	749.48	435.37	480.89	275.06	96.584	505.8	276.77	164.12	567.69	35.682	226.16	515.36	762.44	47.754	355.76	31.355	201.76	538.03	30.828	137.49	522.87	889.7	-26.151	405.93	71.879	154.21	392.48	1081.1	432.37	402.27	165.6	351.46	614.16	31.155	209.17	341.16	138.77	303.02	433.09	1253.7	-12.054	519.35	836.4	-74.198
